<?xml version="1.0" standalone="no"?>
<!DOCTYPE svg PUBLIC "-//W3C//DTD SVG 20010904//EN"
 "http://www.w3.org/TR/2001/REC-SVG-20010904/DTD/svg10.dtd">
<svg version="1.0" xmlns="http://www.w3.org/2000/svg"
 width="500.000000pt" height="200.000000pt" viewBox="0 0 500.000000 200.000000"
 preserveAspectRatio="xMidYMid meet">

<g transform="translate(0.000000,200.000000) scale(0.100000,-0.100000)"
fill="#000000" stroke="none">
<path d="M640 1594 c-98 -26 -216 -97 -270 -161 -43 -53 -66 -134 -51 -184 13
-43 50 -69 98 -69 28 0 28 0 25 58 -4 72 26 159 76 214 36 40 89 74 99 64 3
-3 -6 -47 -19 -98 -14 -51 -51 -190 -83 -308 -31 -118 -72 -267 -89 -331 l-33
-115 79 -12 c95 -14 135 -34 285 -146 108 -81 196 -126 248 -126 49 0 116 81
131 159 l6 30 -65 -6 c-86 -8 -134 5 -290 78 -70 33 -141 62 -158 66 -16 3
-29 7 -29 9 0 4 228 852 236 877 5 15 -3 17 -68 16 -40 0 -98 -7 -128 -15z"/>
<path d="M2955 1565 c-5 -2 -35 -6 -65 -10 -30 -3 -61 -9 -67 -13 -7 -4 -48
-145 -93 -312 -44 -168 -88 -322 -97 -343 -22 -50 -68 -89 -101 -85 -51 6 -50
21 16 271 34 130 62 238 62 241 0 3 -42 6 -94 6 l-94 0 -8 -27 c-5 -19 -8 -23
-11 -12 -6 24 -47 39 -106 39 -100 -1 -203 -70 -263 -176 -42 -76 -74 -170
-74 -222 0 -48 -49 -122 -100 -151 -23 -13 -43 -21 -45 -19 -2 2 16 80 41 173
25 94 56 213 70 265 14 52 27 103 30 113 5 15 -4 17 -90 17 l-95 0 -10 -37
c-106 -408 -105 -408 -147 -447 -34 -31 -80 -35 -89 -7 -7 22 -1 51 58 271 24
91 47 177 51 193 l6 27 -94 0 -93 0 -13 -47 c-33 -129 -32 -127 -89 -140 -59
-13 -57 -15 -64 61 -6 56 -28 91 -77 118 -47 26 -144 18 -216 -17 -128 -63
-234 -250 -234 -415 0 -94 25 -144 83 -170 193 -85 369 39 437 306 9 39 14 43
56 53 26 7 48 10 50 9 2 -2 -9 -48 -23 -103 -44 -172 -33 -250 42 -281 63 -26
140 -10 194 39 l24 22 -6 -25 c-4 -14 -7 -28 -7 -31 0 -3 -19 -11 -42 -18
-141 -41 -222 -145 -186 -239 20 -53 67 -77 148 -76 136 1 200 67 246 247 17
68 17 69 68 92 28 12 66 37 85 54 18 18 34 31 35 29 33 -75 93 -112 168 -104
57 6 113 34 152 75 l30 31 10 -32 c32 -97 172 -102 278 -9 l36 31 13 -31 c17
-43 85 -74 146 -65 49 6 94 27 136 62 l28 24 29 -33 c75 -86 206 -74 377 33
51 32 93 55 93 51 0 -4 -7 -30 -15 -57 -23 -78 -26 -75 77 -72 l93 3 28 105
c87 323 90 333 120 366 38 44 83 47 98 7 8 -21 3 -52 -22 -147 -49 -185 -54
-224 -36 -267 11 -26 27 -42 59 -58 74 -35 149 -23 219 37 22 19 41 33 43 31
2 -2 9 -14 15 -27 17 -33 70 -62 112 -62 22 0 61 12 93 29 34 18 56 25 56 18
0 -22 -15 -34 -55 -47 -133 -43 -202 -122 -187 -218 6 -46 45 -79 108 -93 76
-17 149 6 209 65 48 49 62 84 125 327 22 86 64 243 93 350 30 107 51 198 47
202 -4 4 -47 7 -95 5 l-89 -3 -41 -160 c-67 -256 -74 -276 -110 -312 -39 -39
-80 -44 -90 -12 -9 27 -3 57 56 279 27 102 49 191 49 198 0 10 -22 12 -92 10
l-91 -3 -43 -165 c-60 -230 -74 -268 -110 -307 -27 -28 -39 -34 -66 -31 -32 3
-33 4 -32 48 0 25 15 97 32 160 49 176 41 249 -32 284 -49 23 -114 20 -170 -8
-26 -13 -46 -19 -43 -12 15 43 69 277 65 281 -8 8 -167 -17 -182 -29 -7 -6
-43 -130 -81 -276 -94 -368 -89 -351 -131 -378 -20 -13 -37 -22 -39 -20 -2 2
-6 112 -10 246 l-8 243 -26 -5 c-14 -3 -58 -8 -97 -11 l-72 -7 -17 -46 c-45
-118 -135 -293 -174 -334 -22 -25 -44 -59 -47 -77 -8 -39 -38 -61 -81 -61 -52
0 -56 22 -28 136 21 89 147 563 161 607 4 13 0 17 -18 16 -13 0 -27 -2 -33 -4z
m-1793 -327 c25 -20 25 -51 0 -82 -26 -34 -28 -68 -6 -90 14 -15 14 -22 -6
-83 -28 -86 -42 -114 -80 -152 -39 -39 -93 -43 -111 -9 -27 51 17 245 78 342
49 77 90 101 125 74z m1216 -10 c18 -18 15 -40 -29 -199 -46 -167 -70 -206
-131 -216 -55 -8 -68 7 -68 79 0 154 103 348 186 348 16 0 35 -5 42 -12z m831
-265 c1 -109 0 -114 -26 -143 -39 -43 -95 -51 -128 -20 -30 28 -34 60 -7 53
27 -7 65 28 65 61 0 16 -5 31 -11 35 -7 4 3 33 27 81 20 41 43 91 51 110 l13
35 8 -50 c4 -27 8 -101 8 -162z m-1619 -351 c0 -10 -12 -43 -27 -73 -25 -48
-32 -54 -62 -57 -33 -3 -51 9 -51 35 0 20 50 73 89 93 45 24 51 24 51 2z
m2769 -41 c-24 -70 -47 -94 -86 -89 -23 2 -28 8 -30 33 -2 17 3 37 10 46 19
24 90 69 109 69 15 0 15 -5 -3 -59z"/>
</g>
</svg>
